<svg width="102" height="24" viewBox="0 0 102 24" fill="none" xmlns="http://www.w3.org/2000/svg">
<path d="M7.375 23H0.642046V1.18182H7.6733C9.78977 1.18182 11.6009 1.61861 13.1065 2.49219C14.6122 3.35866 15.7663 4.60511 16.5689 6.23153C17.3714 7.85085 17.7727 9.78977 17.7727 12.0483C17.7727 14.321 17.3679 16.2777 16.5582 17.9183C15.7486 19.5518 14.5696 20.8089 13.0213 21.6896C11.473 22.5632 9.59091 23 7.375 23ZM3.28409 20.6562H7.20455C9.00852 20.6562 10.5036 20.3082 11.6896 19.6122C12.8757 18.9162 13.7599 17.9254 14.3423 16.6399C14.9247 15.3544 15.2159 13.8239 15.2159 12.0483C15.2159 10.2869 14.9283 8.7706 14.353 7.49929C13.7777 6.22088 12.9183 5.24077 11.7749 4.55895C10.6314 3.87003 9.20739 3.52557 7.50284 3.52557H3.28409V20.6562ZM34.1364 6.63636C34.0085 5.55682 33.4901 4.71875 32.581 4.12216C31.6719 3.52557 30.5568 3.22727 29.2358 3.22727C28.2699 3.22727 27.4247 3.38352 26.7003 3.69602C25.983 4.00852 25.4219 4.43821 25.017 4.98508C24.6193 5.53196 24.4205 6.15341 24.4205 6.84943C24.4205 7.43182 24.5589 7.93253 24.8359 8.35156C25.12 8.76349 25.4822 9.10795 25.9226 9.38494C26.3629 9.65483 26.8246 9.87855 27.3075 10.0561C27.7905 10.2266 28.2344 10.3651 28.6392 10.4716L30.8551 11.0682C31.4233 11.2173 32.0554 11.4233 32.7514 11.6861C33.4545 11.9489 34.1257 12.3075 34.7649 12.7621C35.4112 13.2095 35.9439 13.7848 36.3629 14.4879C36.782 15.1911 36.9915 16.054 36.9915 17.0767C36.9915 18.2557 36.6825 19.321 36.0646 20.2727C35.4538 21.2244 34.5589 21.9808 33.38 22.5419C32.2081 23.103 30.7841 23.3835 29.108 23.3835C27.5455 23.3835 26.1925 23.1314 25.049 22.6271C23.9126 22.1229 23.0178 21.4197 22.3643 20.5178C21.718 19.6158 21.3523 18.5682 21.267 17.375H23.9943C24.0653 18.1989 24.3423 18.8807 24.8253 19.4205C25.3153 19.9531 25.9332 20.3509 26.679 20.6136C27.4318 20.8693 28.2415 20.9972 29.108 20.9972C30.1165 20.9972 31.022 20.8338 31.8246 20.5071C32.6271 20.1733 33.2628 19.7116 33.7315 19.1222C34.2003 18.5256 34.4347 17.8295 34.4347 17.0341C34.4347 16.3097 34.2322 15.7202 33.8274 15.2656C33.4226 14.8111 32.8899 14.4418 32.2294 14.1577C31.5689 13.8736 30.8551 13.625 30.0881 13.4119L27.4034 12.6449C25.6989 12.1548 24.3494 11.4553 23.3551 10.5462C22.3608 9.63707 21.8636 8.44744 21.8636 6.97727C21.8636 5.75568 22.1939 4.69034 22.8544 3.78125C23.522 2.86506 24.4169 2.15483 25.5391 1.65057C26.6683 1.1392 27.929 0.883522 29.321 0.883522C30.7273 0.883522 31.9773 1.13565 33.071 1.63991C34.1648 2.13707 35.0313 2.81889 35.6705 3.68537C36.3168 4.55185 36.6577 5.53551 36.6932 6.63636H34.1364ZM41.3354 23V1.18182H43.9775V10.8977H55.611V1.18182H58.253V23H55.611V13.2415H43.9775V23H41.3354ZM81.9515 12.0909C81.9515 14.392 81.536 16.3807 80.7051 18.0568C79.8741 19.733 78.7342 21.0256 77.2853 21.9347C75.8365 22.8438 74.1816 23.2983 72.3208 23.2983C70.4601 23.2983 68.8052 22.8438 67.3564 21.9347C65.9075 21.0256 64.7676 19.733 63.9366 18.0568C63.1056 16.3807 62.6902 14.392 62.6902 12.0909C62.6902 9.78977 63.1056 7.80114 63.9366 6.125C64.7676 4.44886 65.9075 3.15625 67.3564 2.24716C68.8052 1.33807 70.4601 0.883522 72.3208 0.883522C74.1816 0.883522 75.8365 1.33807 77.2853 2.24716C78.7342 3.15625 79.8741 4.44886 80.7051 6.125C81.536 7.80114 81.9515 9.78977 81.9515 12.0909ZM79.3947 12.0909C79.3947 10.2017 79.0787 8.60724 78.4466 7.30753C77.8216 6.00781 76.9728 5.02415 75.9004 4.35653C74.835 3.68892 73.6419 3.35511 72.3208 3.35511C70.9998 3.35511 69.8031 3.68892 68.7306 4.35653C67.6653 5.02415 66.8166 6.00781 66.1845 7.30753C65.5595 8.60724 65.247 10.2017 65.247 12.0909C65.247 13.9801 65.5595 15.5746 66.1845 16.8743C66.8166 18.174 67.6653 19.1577 68.7306 19.8253C69.8031 20.4929 70.9998 20.8267 72.3208 20.8267C73.6419 20.8267 74.835 20.4929 75.9004 19.8253C76.9728 19.1577 77.8216 18.174 78.4466 16.8743C79.0787 15.5746 79.3947 13.9801 79.3947 12.0909ZM86.394 23V1.18182H93.7662C95.4778 1.18182 96.877 1.49077 97.9636 2.10866C99.0574 2.71946 99.867 3.54688 100.393 4.59091C100.918 5.63494 101.181 6.79972 101.181 8.08523C101.181 9.37074 100.918 10.5391 100.393 11.5902C99.8741 12.6413 99.0716 13.4794 97.9849 14.1044C96.8983 14.7223 95.5062 15.0312 93.8088 15.0312H88.5247V12.6875H93.7235C94.8954 12.6875 95.8365 12.4851 96.5467 12.0803C97.2569 11.6754 97.7718 11.1286 98.0914 10.4396C98.4181 9.74361 98.5815 8.95881 98.5815 8.08523C98.5815 7.21165 98.4181 6.4304 98.0914 5.74148C97.7718 5.05256 97.2534 4.51278 96.536 4.12216C95.8187 3.72443 94.867 3.52557 93.6809 3.52557H89.036V23H86.394Z" fill="#3E9CD0"/>
</svg>
